<svg height="126" viewBox="0 0 95 126" width="95" xmlns="http://www.w3.org/2000/svg">
  <g fill="#ffffff" transform="matrix(1,0,0,1,-1577.8,-1408.9)">
    <path stroke="#ffffff" stroke-width="1.5px" d="M 1633.4 1519.6 h -51.3 v -100.8 h 24.7 v 1 h -23.7 v 98.8 h 50.3 z"/>
    <path stroke="#ffffff" stroke-width="1.5px" d="M 1655.6 1497.3 h -1 v -77.5 h -23.7 v -1 h 24.7 z"/>
    <path stroke="#ffffff" stroke-width="1.5px" d="M 43.9 4.6 h -39.7 v -1 h 39.7 z" transform="translate(1594.8,1444.5)"/>
    <path stroke="#ffffff" stroke-width="1.5px" d="M 43.9 4.6 h -39.7 v -1 h 39.7 z" transform="translate(1594.8,1458.3)"/>
    <path stroke="#ffffff" stroke-width="1.5px" d="M 43.9 4.6 h -39.7 v -1 h 39.7 z" transform="translate(1594.8,1472)"/>
    <path stroke="#ffffff" stroke-width="1.5px" d="M 43.9 4.6 h -39.7 v -1 h 39.7 z" transform="translate(1594.8,1485.7)"/>
    <path stroke="#ffffff" stroke-width="1.5px" d="M 1608.4 1413 h 20.8 C 1630.3 1413 1631.3 1414 1631.3 1415.1 v 12.4 C 1631.3 1429 1630.2 1430.2 1628.8 1430.3 C 1627.4 1430.4 1626.1 1429.3 1626.1 1427.8 l 0 -0.3 C 1625.6 1424.1 1622.7 1421.5 1619.2 1421.5 C 1615.7 1421.5 1612.8 1424.1 1612.4 1427.5 l 0 0.3 C 1612.2 1429.1 1611.1 1430.1 1609.8 1430.1 h -0.9 C 1607.4 1430.1 1606.3 1429 1606.3 1427.5 v -12.4 C 1606.3 1414 1607.2 1413 1608.4 1413 z m 20.3 16.2 C 1629.5 1429.2 1630.3 1428.5 1630.3 1427.6 v -12.4 C 1630.3 1414.6 1629.8 1414.1 1629.2 1414.1 h -20.8 C 1607.7 1414.1 1607.3 1414.6 1607.3 1415.2 v 12.4 C 1607.3 1428.5 1608 1429.2 1608.9 1429.2 h 0.9 C 1610.6 1429.2 1611.3 1428.6 1611.4 1427.8 l 0 -0.3 C 1611.8 1423.5 1615.2 1420.5 1619.2 1420.5 C 1623.2 1420.5 1626.6 1423.5 1627.1 1427.5 l 0 0.3 C 1627.2 1428.6 1627.8 1429.2 1628.7 1429.2 z"/>
    <path stroke="#ffffff" stroke-width="1.5px" d="M 21.5 3.6 C 29.9 3.6 37.2 9.6 38.9 17.9 C 40.6 26.2 36.2 34.5 28.4 37.8 C 19.3 41.7 8.8 37.4 5 28.4 C 1.2 19.3 5.4 8.9 14.5 5 C 16.6 4.1 19 3.6 21.4 3.6 z m 0 34.6 C 28.3 38.2 34.4 34.2 37 27.9 C 39.6 21.6 38.2 14.3 33.4 9.5 C 26.8 3 16.1 3 9.6 9.5 C 3 16.1 3 26.8 9.6 33.3 C 12.7 36.5 17 38.2 21.5 38.2 z" transform="translate(1628.3,1492.4)"/>
    <path stroke="#ffffff" stroke-width="1.5px" d="M 1649.3 1520.7 l -7.4 -6.6 C 1641.7 1514 1641.6 1513.8 1641.7 1513.6 C 1641.7 1513.4 1641.9 1513.3 1642 1513.2 C 1642.2 1513.2 1642.4 1513.3 1642.6 1513.4 l 6.6 5.9 l 9.8 -11.9 C 1659.1 1507.3 1659.2 1507.2 1659.4 1507.2 C 1659.6 1507.3 1659.7 1507.4 1659.8 1507.5 C 1659.9 1507.7 1659.9 1507.9 1659.8 1508 z"/>
  </g>
</svg>