<svg height="93" viewBox="0 0 135 93" width="135" xmlns="http://www.w3.org/2000/svg"><g fill="#ffffff" transform="matrix(1,0,0,1,-1367.6,-490.9)"><path stroke="#ffffff" stroke-width="1px" d="M 1424.3 524.4 C 1424 524.4 1423.8 524.2 1423.8 523.9 v -13.7 h -31.6 v 13.7 C 1392.2 524.2 1392 524.4 1391.7 524.4 C 1391.4 524.4 1391.2 524.2 1391.2 523.9 v -14.2 C 1391.2 509.4 1391.4 509.2 1391.7 509.2 h 32.6 C 1424.6 509.2 1424.8 509.4 1424.8 509.7 v 14.2 C 1424.8 524.2 1424.6 524.4 1424.3 524.4 z"/><path stroke="#ffffff" stroke-width="1px" d="M 33.9 2 h -32.6 C 1 2 0.8 1.8 0.8 1.5 C 0.8 1.2 1 1 1.3 1 h 32.6 C 34.2 1 34.4 1.2 34.4 1.5 C 34.4 1.8 34.2 2 33.9 2 z" transform="translate(1390.4,531.9)"/><path stroke="#ffffff" stroke-width="1px" d="M 33.9 2 h -32.6 C 1 2 0.8 1.8 0.8 1.5 C 0.8 1.2 1 1 1.3 1 h 32.6 C 34.2 1 34.4 1.2 34.4 1.5 C 34.4 1.8 34.2 2 33.9 2 z" transform="translate(1390.4,540.4)"/><path stroke="#ffffff" stroke-width="1px" d="M 33.9 2 h -32.6 C 1 2 0.8 1.8 0.8 1.5 C 0.8 1.2 1 1 1.3 1 h 32.6 C 34.2 1 34.4 1.2 34.4 1.5 C 34.4 1.8 34.2 2 33.9 2 z" transform="translate(1390.4,548.9)"/><path stroke="#ffffff" stroke-width="1px" d="M 1.3 1 h 130.7 C 132.3 1 132.5 1.2 132.5 1.5 v 5.5 C 132.5 9.8 130.2 12.1 127.4 12.1 h -121.6 C 3 12.1 0.7 9.8 0.7 7 v -5.5 C 0.7 1.2 0.9 1 1.2 1 z m 130.2 1 h -129.7 v 5 C 1.8 8.1 2.2 9.1 3 9.9 C 3.8 10.7 4.8 11.1 5.9 11.1 h 121.6 C 129.8 11.1 131.6 9.3 131.6 7 z" transform="translate(1368.1,569)"/><path stroke="#ffffff" stroke-width="1px" d="M 5.6 1 h 105.1 C 113.3 1 115.5 3.1 115.5 5.8 v 73.3 C 115.5 79.4 115.3 79.6 115 79.6 h -113.7 C 1 79.6 0.8 79.4 0.8 79.1 v -73.3 C 0.8 3.1 2.9 1 5.6 1 z m 108.9 77.6 v -72.8 C 114.5 3.7 112.8 2 110.7 2 h -105.1 C 3.5 2 1.8 3.7 1.8 5.8 v 72.8 z" transform="translate(1376.6,491.4)"/><path stroke="#ffffff" stroke-width="1px" d="M 1454.2 526.8 C 1454.3 526.8 1454.3 526.8 1454.4 526.9 C 1456.4 528.3 1459.1 528.3 1461.1 526.9 C 1461.2 526.9 1461.3 526.9 1461.4 526.9 l 3 0.7 C 1465.3 527.9 1465.9 528.6 1466.1 529.5 q 0 0 0 0 l 0.7 5 C 1466.8 534.6 1466.8 534.8 1466.7 534.9 C 1466.6 535 1466.4 535.1 1466.3 535.1 h -17 C 1449.1 535.1 1449 535 1448.9 534.9 C 1448.8 534.8 1448.8 534.6 1448.8 534.5 l 0.7 -5 c 0 0 0 0 0 0 C 1449.6 528.6 1450.3 527.9 1451.2 527.6 l 3 -0.7 C 1454.2 526.9 1454.3 526.9 1454.3 526.9 z m 10.9 2.8 C 1465 529.1 1464.7 528.7 1464.2 528.5 l -2.8 -0.6 C 1460.2 528.4 1459 528.8 1457.8 529 C 1457.8 529 1457.7 529 1457.7 529 C 1456.4 528.8 1455.2 528.4 1454.1 527.9 l -2.8 0.6 C 1450.8 528.7 1450.5 529.1 1450.4 529.6 l -0.6 4.4 h 15.9 z"/><path stroke="#ffffff" stroke-width="1px" d="M 1457.7 524.3 C 1455.8 524.4 1454 523.4 1453.2 521.7 C 1452.4 520 1452.7 517.9 1454 516.6 C 1455.3 515.2 1457.3 514.7 1459.1 515.4 C 1460.8 516.1 1462 517.8 1462 519.7 C 1462 520.9 1461.6 522 1460.8 522.9 C 1460 523.8 1458.9 524.3 1457.7 524.3 z m 0 -8.2 C 1456.2 516 1454.8 516.8 1454.2 518.1 C 1453.5 519.4 1453.7 521 1454.7 522.1 C 1455.7 523.2 1457.3 523.6 1458.7 523 C 1460.1 522.5 1461 521.2 1461 519.7 C 1461 518.8 1460.7 517.9 1460.1 517.2 C 1459.5 516.5 1458.6 516.1 1457.7 516.1 z"/><path stroke="#ffffff" stroke-width="1px" d="M 1.3 1 h 25.4 C 27 1 27.2 1.2 27.2 1.5 v 25.4 C 27.2 27.2 27 27.4 26.7 27.4 h -25.4 C 1 27.4 0.8 27.2 0.8 26.9 v -25.4 C 0.8 1.2 1 1 1.3 1 z m 24.9 1 h -24.4 v 24.4 h 24.4 z" transform="translate(1443.7,507.5)"/></g></svg>